# xmcd
#
# Track frame offsets: 
#        183
#        24000
#        40123
#        52273
#        65435
#        76045
#        89878
#        108778
#        122180
#        136163
#        151063
#        163038
#
# Disc length: 2412 seconds
#
# Revision: 6
# Processed by: cddbd v1.5.2PL0 Copyright (c) Steve Scherf et al.
# Submitted via: ExactAudioCopy v0.99pb5
#
DISCID=90096a0c
DTITLE=Dolly Parton - The Love album
DYEAR=1983
DGENRE=Country
TTITLE0=You are
TTITLE1=Heartbreaker
TTITLE2=The bargain store
TTITLE3=I will always love you
TTITLE4=Love is like a butterfly
TTITLE5=Coat of many colours
TTITLE6=Islands in the stream
TTITLE7=Here you come again
TTITLE8=Send me the pillow you dream on
TTITLE9=It's all wrong, but it's all right
TTITLE10=Jolene
TTITLE11=One of those days
EXTD=YEAR: 1983
EXTT0=
EXTT1=
EXTT2=
EXTT3=
EXTT4=
EXTT5=
EXTT6=
EXTT7=
EXTT8=
EXTT9=
EXTT10=
EXTT11=
PLAYORDER=
